<svg viewBox="0 0 48 48" fill="none" xmlns="http://www.w3.org/2000/svg" role="img" aria-label="TrinoHub">
  <defs>
    <linearGradient id="thHex" x1="7" y1="4" x2="41" y2="45" gradientUnits="userSpaceOnUse">
      <stop stop-color="#6322A6"/>
      <stop offset="0.55" stop-color="#9E3FD6"/>
      <stop offset="1" stop-color="#A734D7"/>
    </linearGradient>
  </defs>

  <!-- hexagonal tech shield -->
  <path d="M24 2.6 41.4 12.7 V33 L24 43.1 6.6 33 V12.7 Z"
        fill="url(#thHex)" stroke="#ffffff" stroke-opacity="0.22"
        stroke-width="1.3" stroke-linejoin="round"/>

  <!-- circuit nodes around the ring -->
  <g stroke="#ffffff" stroke-opacity="0.4" stroke-width="1" stroke-linecap="round">
    <path d="M24 2.6 V7"/>
    <path d="M41.4 12.7 36.8 15.4"/>
    <path d="M6.6 33 11.2 30.3"/>
  </g>
  <g fill="#ffffff" fill-opacity="0.7">
    <circle cx="24" cy="2.6" r="1.3"/>
    <circle cx="41.4" cy="12.7" r="1.3"/>
    <circle cx="6.6" cy="33" r="1.3"/>
  </g>

  <!-- bunny -->
  <g fill="#ffffff">
    <path d="M22.3 21.4 C19.7 17.6 17.7 13.3 18.4 9.4 C18.7 7.7 20.3 7.7 21.1 9.3 C22.9 12.9 23.5 17.4 22.3 21.4 Z"/>
    <path d="M25.7 21.4 C28.3 17.6 30.3 13.3 29.6 9.4 C29.3 7.7 27.7 7.7 26.9 9.3 C25.1 12.9 24.5 17.4 25.7 21.4 Z"/>
    <ellipse cx="24" cy="29" rx="9" ry="8.4"/>
  </g>

  <!-- inner ears -->
  <g fill="#C77BEC">
    <path d="M21.2 18.6 C20.2 15.7 19.8 12.6 20.3 10.2 C21.4 12.7 22 15.8 21.2 18.6 Z"/>
    <path d="M26.8 18.6 C27.8 15.7 28.2 12.6 27.7 10.2 C26.6 12.7 26 15.8 26.8 18.6 Z"/>
  </g>

  <!-- face -->
  <g fill="#5B2497">
    <circle cx="20.6" cy="28.4" r="1.25"/>
    <circle cx="27.4" cy="28.4" r="1.25"/>
    <path d="M24 30.6 C25 30.6 25.7 31.2 25.7 31.9 C25.7 32.7 24.9 33.3 24 33.3 C23.1 33.3 22.3 32.7 22.3 31.9 C22.3 31.2 23 30.6 24 30.6 Z"/>
  </g>
  <path d="M24 33.3 V35" stroke="#5B2497" stroke-width="1" stroke-linecap="round"/>
</svg>
